<?xml version="1.0" encoding="UTF-8"?><svg id="b" xmlns="http://www.w3.org/2000/svg" width="216.987" height="329.288" viewBox="0 0 216.987 329.288"><defs><style>.e{fill:#fff;}.f{fill:#211715;}.g{fill:#645d5c;}.h{fill:#febe69;}</style></defs><g id="c"><g id="d"><path class="e" d="M153.937,79.711c1.516-1.457,3.559-2.005,5.308-1.943,3.805.134,5.423,2.192,6.12,3.4,2.08,3.606,1.992,10.252.596,14.364-.989,2.912-2.608,7.367-6.512,10.561-1.77,1.448-4.46,2.353-6.917,1.639-1.742,6.078-4.918,13.428-10.532,20.26-3.704,4.508-7.26,7.576-11.31,9.857,0,4.075,0,7.281,0,7.281,0,1.287,0,2.691.476,3.943.638,1.647,1.496,3.073,2.876,4.187,2.923,2.354,5.926,3.479,9.626,4.871l2.414.952c-8.24,6.788-23.232,12.259-38.857,12.305-15.52-.046-30.415-5.444-38.69-12.169,1.341-.526,2.77-1.089,2.77-1.089,3.7-1.392,6.703-2.517,9.626-4.871,1.38-1.113,2.238-2.54,2.876-4.187.476-1.253.476-2.656.476-3.943,0,0,0-2.473-.001-6.182-4.532-2.484-8.653-6.166-12.589-10.956-5.595-6.808-8.768-14.13-10.514-20.195-2.392.59-4.967-.302-6.68-1.704-3.904-3.194-5.523-7.649-6.512-10.561-1.396-4.112-1.484-10.757.596-14.364.697-1.208,2.315-3.266,6.12-3.4,1.748-.062,3.791.486,5.308,1.943,0,0-3.19-45.416,46.964-45.416,46.197,0,46.964,45.416,46.964,45.416Z"/><path class="e" d="M173.108,168.964c-1.634-.844-3.246-1.587-4.843-2.262-4.825-2.042-15.031-6.039-21.735-7.956l-1.11.868c-8.365,6.54-22.98,11.73-38.196,11.775-15.746-.046-30.85-5.603-39.045-12.465-10.432,4.088-22.295,7.544-32.446,13.98-4.703,2.982-10.597,7.797-13.651,12.508-3.7,5.707-7.332,14.503-8.904,21.161-1.817,7.694-2.662,11.976-4.369,22.23-2.931,17.77-4.76,31.62-6.271,56.198-.492,7.999.279,16.589,3.282,23.991,3.004,7.402,10.544,14.391,18.046,16.692,6.702,2.056,12.297,1.322,17.757-1.043.013.361.021.583.021.583.02.53.06,1,.12,1.1.27.4.65.55,1.13.56,4.87.02,117.71-.1,127.96-.1.28,0,.95-.16,1.11-.39.15-.23.25-.59.26-.86.08-2.86.08-5.43.08-8.33,2.688,1.205,5.574,2.186,7.247,2.651,6.203,1.726,14.965,2.455,20.906-.542,11.84-5.974,14.116-18.456,14.116-27.658,0-7.049-.167-14.103-1-21.104-2.114-17.758-6.89-48.392-10.696-60.738-4.072-13.213-7.974-24.048-16.689-31.801-4.561-4.058-8.889-6.884-13.078-9.048Z"/><path class="g" d="M160.96,41.908c-2.327-7.11-6.137-13.395-11.676-17.829l-6.243-6.547c-7.082-9.338-18.595-14.4-35.042-15.121-21.396-.724-37.19,8.851-44.182,17.768l1.434,1.482c-14.512,12.595-19.794,35.127-12.757,56.446.639-.186,1.37-.308,2.207-.338,1.748-.062,3.791.486,5.308,1.943l7.506-6.303c5.633-6.277,15.576-15.738,22.553-19.398.818-.429,1.869.151,2.201,1.519.32,1.321.319,2.324.215,3.273-.158,1.441,1.241,2.49,2.429,1.83,4.981-2.767,13.856-8.336,20.149-10.988l9.332,1.146c3.004,1.306,5.289,2.561,8.595,5.406,5.665,4.874,11.095,11.561,13.501,17.613l7.449,5.902c1.516-1.457,3.559-2.005,5.308-1.943.958.034,1.778.19,2.479.423,2.882-11.402,2.961-24.9-.764-36.284Z"/><path class="f" d="M67.331,161.311c8.448,6.543,19.078,10.2,29.58,11.687,11.869,1.681,24.072.467,35.338-3.684,5.327-1.963,10.372-4.522,14.868-8.003,1.026-.794.835-2.559,0-3.394-1.012-1.012-2.366-.796-3.394,0-7.676,5.945-17.752,9.067-27.242,10.422-10.819,1.544-21.956.272-32.24-3.375-4.759-1.688-9.506-3.94-13.516-7.046-1.024-.793-2.396-.998-3.394,0-.827.827-1.031,2.596,0,3.394h0Z"/><path class="f" d="M128.289,139.1v4.849c0,1.919-.089,3.926.561,5.762,1.246,3.516,3.843,5.902,7.047,7.674,3.817,2.111,8.131,3.454,12.188,5.055,1.206.476,2.635-.522,2.952-1.676.374-1.363-.466-2.475-1.676-2.952-3.379-1.333-6.932-2.482-10.175-4.114-2.474-1.246-4.962-2.816-5.825-5.607-.474-1.532-.272-3.294-.272-4.876v-4.115c0-3.089-4.8-3.094-4.8,0h0Z"/><path class="f" d="M81.881,140.19v4.388c0,1.421.068,2.825-.508,4.135-1.131,2.574-3.552,4.008-6.034,5.203-3.131,1.508-6.507,2.622-9.742,3.896-1.205.474-2.046,1.607-1.676,2.952.316,1.148,1.739,2.154,2.952,1.676,3.907-1.538,8.022-2.854,11.738-4.806,3.096-1.627,5.748-3.789,7.152-7.061,1.379-3.215.918-6.959.918-10.383,0-3.089-4.8-3.094-4.8,0h0Z"/><path class="f" d="M31.645,280.833c5.643-4.181,11.551-7.991,17.197-12.168,1.04-.77,1.566-2.079.861-3.284-.6-1.026-2.236-1.636-3.284-.861-5.646,4.177-11.554,7.987-17.197,12.168-1.04.77-1.566,2.079-.861,3.284.6,1.025,2.236,1.637,3.284.861h0Z"/><path class="f" d="M34.71,213.991c2.369,11.238,4.962,22.506,8.595,33.412.971,2.916,5.609,1.666,4.629-1.276-3.633-10.906-6.226-22.174-8.595-33.412-.637-3.021-5.265-1.742-4.629,1.276h0Z"/><path class="f" d="M52.058,315.567c-5.884,4.172-12.404,8.678-19.879,8.908-7.605.234-14.486-3.551-19.475-9.102-5.435-6.047-7.345-14.231-7.798-22.168-.248-4.348.048-8.674.34-13.013.281-4.186.595-8.37.957-12.549,1.198-13.814,3.101-27.527,5.422-41.195,1.125-6.626,2.376-13.234,3.993-19.759,1.774-7.161,4.715-14.603,8.95-20.681,2.18-3.13,5.193-5.788,8.194-8.108,3.187-2.464,6.664-4.539,10.255-6.357,7.295-3.693,15.07-6.263,22.711-9.124,1.846-.691,3.684-1.403,5.508-2.153,1.198-.493,2.05-1.594,1.676-2.952-.311-1.133-1.746-2.172-2.952-1.676-15.765,6.482-32.903,10.678-45.378,23.057-5.848,5.803-9.345,13.656-11.989,21.351-2.242,6.524-3.516,13.435-4.739,20.213-2.62,14.521-4.754,29.145-6.131,43.838-.388,4.142-.724,8.29-1.023,12.439-.33,4.575-.754,9.175-.695,13.765.111,8.576,1.59,18.002,6.658,25.145,4.786,6.745,11.985,12.064,20.256,13.426,8.078,1.331,15.472-1.317,22.257-5.577,1.808-1.135,3.564-2.35,5.305-3.584,1.056-.749,1.556-2.095.861-3.284-.611-1.044-2.221-1.615-3.284-.861h0Z"/><path class="f" d="M65.514,21.875c6.282-7.945,15.865-12.919,25.578-15.346,6.497-1.623,13.211-2.066,19.88-1.537,5.729.454,11.539,1.556,16.848,3.82,5.099,2.174,9.762,5.508,13.148,9.931.787,1.027,2.066,1.573,3.284.861,1.011-.592,1.654-2.248.861-3.284-3.364-4.394-7.556-7.989-12.489-10.527-5.619-2.891-11.751-4.425-17.991-5.223-13.529-1.731-27.652.425-39.589,7.205-4.857,2.759-9.446,6.306-12.925,10.706-.803,1.016-.991,2.403,0,3.394.834.834,2.586,1.022,3.394,0h0Z"/><path class="f" d="M54.727,77.217c-4.721-14.674-3.939-31.384,4.361-44.659,2.156-3.448,4.801-6.522,7.86-9.201,2.328-2.039-1.078-5.422-3.394-3.394-12.34,10.805-17.658,27.834-16.358,43.9.402,4.973,1.374,9.883,2.902,14.631.942,2.929,5.578,1.676,4.629-1.276h0Z"/><path class="f" d="M147.587,25.776c11.448,9.269,14.525,25.342,13.721,39.343-.236,4.111-.851,8.174-1.833,12.173-.736,3,3.891,4.279,4.629,1.276,3.708-15.103,3.122-32.819-4.914-46.501-2.152-3.664-4.902-7.008-8.209-9.685-1.007-.815-2.41-.984-3.394,0-.843.843-1.013,2.574,0,3.394h0Z"/><path class="f" d="M57.941,104.785c1.546,7.01,4.348,13.813,8.292,19.816,4.219,6.42,9.774,12.454,16.527,16.248,3.426,1.925,7.172,3.241,11.056,3.835,1.28.196,2.581-.324,2.952-1.676.312-1.136-.387-2.755-1.676-2.952-13.871-2.123-24.172-14.263-29.394-26.605-1.354-3.201-2.38-6.549-3.129-9.942-.665-3.015-5.294-1.739-4.629,1.276h0Z"/><path class="f" d="M151.122,103.509c-1.758,7.972-5.168,15.624-10.231,22.057-2.512,3.192-5.391,6.224-8.744,8.542-3.092,2.138-6.486,3.659-10.049,4.82-2.924.953-1.673,5.59,1.276,4.629,6.316-2.059,11.996-5.212,16.737-9.908,5.443-5.391,9.622-11.934,12.541-18.995,1.32-3.193,2.354-6.496,3.098-9.869.664-3.01-3.963-4.296-4.629-1.276h0Z"/><path class="f" d="M98.25,119.1c2.874,1.518,5.969,2.155,9.22,2.134,3.314-.021,6.652-.678,9.305-2.745,1.023-.797.837-2.557,0-3.394-1.01-1.01-2.368-.799-3.394,0,.728-.567.164-.134-.023-.014-.185.119-.375.228-.57.33-.101.053-.204.1-.305.152-.389.2.096-.042.097-.032.005.046-.718.264-.786.286-.717.23-1.455.392-2.2.502.355-.053-.063.004-.208.018-.216.021-.432.039-.648.053-.521.034-1.042.047-1.564.044-.467-.003-.934-.019-1.4-.05-.214-.015-.428-.032-.641-.053-.025-.003-.798-.111-.308-.033-.694-.11-1.381-.255-2.055-.456-.288-.086-.569-.189-.853-.287-.613-.21.354.183-.199-.078-.352-.166-.7-.339-1.044-.521-1.146-.605-2.61-.291-3.284.861-.634,1.084-.289,2.676.861,3.284h0Z"/><path class="f" d="M106.248,97.384c.402,1.532.787,3.089,1.018,4.657l-.086-.638c.027.215.039.427.017.643l.086-.638c-.015.1-.037.194-.071.289l.242-.573c-.03.067-.061.125-.102.186l.375-.486c-.048.058-.093.103-.152.15l.486-.375c-.118.076-.242.137-.369.195l.573-.242c-.203.085-.404.147-.622.181l.638-.086c-.196.023-.388.022-.584-.001l.638.086c-.22-.031-.436-.084-.656-.114-.319-.1-.638-.114-.957-.043-.319.014-.617.109-.892.285-.498.291-.973.862-1.103,1.434-.14.614-.11,1.304.242,1.849.312.484.835,1.022,1.434,1.103.502.068.989.195,1.5.218.784.034,1.511-.206,2.211-.526.865-.396,1.54-1.174,1.77-2.105.195-.788.111-1.477-.022-2.266-.253-1.5-.6-2.987-.986-4.459-.318-1.214-1.729-2.072-2.952-1.676-1.25.404-2.018,1.651-1.676,2.952h0Z"/><path class="f" d="M81.635,84.193c-.778,2.527-.271,8.341,4.517,8.836,6.328-.038,6.665-7.067,4.535-10.372-1.744-2.706-6.873-3.831-9.052,1.536Z"/><path class="f" d="M132.311,84.193c.778,2.527.271,8.341-4.517,8.836-6.328-.038-6.665-7.067-4.535-10.372,1.744-2.706,6.873-3.831,9.052,1.536Z"/><path class="f" d="M61.706,78.014c-3.119-2.822-7.64-3.404-11.434-1.602-2.776,1.318-4.388,4.077-5.093,6.969-1.664,6.824.075,14.658,4.042,20.413,2.861,4.151,6.915,7.13,12.154,6.414,1.286-.176,1.987-1.822,1.676-2.952-.381-1.386-1.663-1.852-2.952-1.676-3.59.49-6.405-3.365-7.879-6.084s-2.545-5.813-2.777-8.899c-.131-1.742-.125-3.539.214-5.258.141-.716.31-1.467.583-2.142.134-.332.311-.655.497-.96.036-.058.411-.601.246-.387.533-.694,1.622-1.399,2.936-1.613,1.566-.255,3.2.094,4.391,1.172,2.286,2.068,5.691-1.316,3.394-3.394h0Z"/><path class="f" d="M155.635,81.408c2.161-1.955,5.759-1.497,7.388.519-.325-.402.133.224.185.309.186.305.363.628.497.96.252.622.411,1.31.549,1.968.371,1.774.384,3.63.249,5.431-.228,3.031-1.271,6.066-2.694,8.743-1.471,2.767-4.313,6.739-7.962,6.241-1.283-.175-2.577.309-2.952,1.676-.308,1.12.384,2.776,1.676,2.952,8.538,1.166,13.498-7.155,15.753-14.187,1.152-3.594,1.295-7.545.717-11.256-.476-3.056-1.765-5.966-4.359-7.772-3.757-2.616-9.137-1.969-12.441,1.021-2.296,2.077,1.107,5.463,3.394,3.394h0Z"/><path class="f" d="M123.181,52.863c4.722,2.068,8.57,5.139,12.131,8.842s6.923,7.958,8.862,12.742c.487,1.2,1.598,2.048,2.952,1.676,1.138-.313,2.166-1.744,1.676-2.952-2.219-5.474-5.771-10.3-9.818-14.569-3.872-4.085-8.203-7.616-13.38-9.884-1.186-.52-2.576-.348-3.284.861-.595,1.018-.333,2.761.861,3.284h0Z"/><path class="f" d="M69.212,75.105c5.595-6.216,11.786-12.312,18.737-17.005.751-.507,1.516-.995,2.301-1.449.258-.149.695-.375.683-.419,0-.001-1.006-.139-.964-.175-.084.073.112.739.079.539.143.858-.007,1.673.024,2.531.048,1.341.697,2.595,1.801,3.363,2.056,1.43,4.017.361,5.909-.725,1.796-1.032,3.579-2.085,5.37-3.126,4.269-2.48,8.57-4.984,13.119-6.922,1.193-.508,1.456-2.266.861-3.284-.722-1.234-2.086-1.371-3.284-.861-4.071,1.734-7.939,3.933-11.769,6.14-1.918,1.105-3.825,2.23-5.74,3.341-.716.415-1.433.829-2.154,1.235.016-.009-.478.235-.486.272.019-.092.591-.176.817-.049l.283.26c.056.411.082.476.078.193.091-.195.046-.578.057-.806.104-2.313-.431-5.196-2.717-6.299-2.084-1.005-4.006.364-5.727,1.462-3.687,2.353-7.089,5.186-10.341,8.101-3.619,3.244-7.081,6.676-10.333,10.288-2.062,2.29,1.322,5.696,3.394,3.394h0Z"/><path class="f" d="M39.243,325.223c.068,1.39.276,2.601,1.532,3.427.678.446,1.414.602,2.216.633.228.009.457,0,.685.001.87,0,1.74,0,2.61,0,3.137,0,6.273-.002,9.41-.004,10.277-.006,20.555-.015,30.832-.024,12.362-.011,24.725-.022,37.087-.034,10.688-.01,21.376-.02,32.064-.029,3.551-.003,7.103-.006,10.654-.009,1.093,0,2.186-.002,3.279-.002.366,0,.734.014,1.099,0,2.413-.093,3.776-1.491,3.918-3.887.16-2.685.074-5.404.074-8.093,0-3.089-4.8-3.094-4.8,0,0,1.318,0,2.635-.009,3.953-.004.606-.01,1.213-.018,1.819s-.191,1.5-.04,2.084l-.013.474.858-1.135c-.012-.376.264.073.126-.015-.046-.03-.169.013-.224,0-.145-.036-.345,0-.495,0-.978,0-1.956,0-2.933.002-3.202.002-6.403.005-9.605.008-10.029.009-20.058.018-30.087.027-11.976.011-23.952.022-35.928.033-10.487.009-20.973.018-31.46.026-5.553.004-11.107.015-16.66.006-.098,0-.208-.015-.305,0-.422.062-.033-.296.35.142l.617,1.059c-.103-.347.004.313-.034-.462-.151-3.075-4.952-3.093-4.8,0h0Z"/><path class="f" d="M142.782,160.266c6.523,1.385,12.873,3.977,19.063,6.405,1.418.556,2.833,1.123,4.241,1.703.268.11.536.222.804.333.055.023.507.213.244.101-.325-.137.363.155.422.181.908.392,1.809.801,2.7,1.23,3.809,1.834,7.448,4.042,10.797,6.626,3.207,2.475,6.229,5.252,8.615,8.542,2.231,3.076,4.028,6.443,5.557,9.916,2.845,6.461,5.029,13.36,6.713,20.215,3.44,14.003,5.587,28.374,7.607,42.639,1.113,7.86,2.169,15.724,2.467,23.665.273,7.266.679,14.671-1.438,21.6-1.896,6.206-6.28,12.11-12.585,14.354-7.04,2.506-15.191.931-21.984-1.628-1.854-.698-3.664-1.499-5.395-2.467-2.699-1.51-5.122,2.635-2.423,4.145,7.12,3.983,15.713,6.322,23.892,5.884,4.243-.228,8.257-1.306,11.849-3.616,3.283-2.111,6.049-4.926,8.102-8.247,3.537-5.722,4.818-12.606,4.932-19.252.158-9.216-.487-18.37-1.674-27.502-1.992-15.326-4.292-30.679-7.56-45.79-1.461-6.756-3.391-13.361-5.742-19.864-2.789-7.713-6.355-15.277-12.128-21.23-6.097-6.287-13.775-10.833-21.803-14.176-6.51-2.712-13.137-5.281-19.893-7.313-1.355-.408-2.72-.788-4.105-1.082-3.013-.64-4.301,3.986-1.276,4.629h0Z"/><rect class="e" x="77.555" y="168.642" width="119.217" height="96.011" transform="translate(-106.231 297.325) rotate(-76)"/><path class="h" d="M103.97,151.345c-5.153,20.668-27.807,111.527-27.807,111.527,0,0,5.64,1.406,10.621,2.648,8.146-32.674,24.7-99.072,28.841-115.676l-10.62-2.648-1.034,4.149Z"/><path class="f" d="M89.305,265.327c4.036-16.188,8.072-32.375,12.108-48.563,4.089-16.4,8.178-32.8,12.267-49.2,1.42-5.694,2.839-11.388,4.259-17.082.747-2.998-3.88-4.276-4.629-1.276-3.057,12.263-6.115,24.525-9.172,36.788-4.362,17.496-8.724,34.993-13.087,52.489-2.125,8.523-4.25,17.046-6.375,25.568-.747,2.998,3.88,4.276,4.629,1.276h0Z"/><path class="f" d="M102.449,147.528c-.8,3.209-1.6,6.417-2.4,9.626l-5.899,23.661-7.448,29.871c-2.348,9.419-4.697,18.837-7.045,28.256l-4.692,18.817c-.284,1.137-.618,2.275-.854,3.423-.4,1.949.54,3.664,2.461,4.266.422.132.866.216,1.295.323,5.942,1.481,11.884,2.963,17.825,4.444,9.651,2.406,19.303,4.813,28.954,7.219,9.314,2.322,18.628,4.645,27.942,6.967,4.927,1.228,9.84,2.556,14.79,3.688,1.96.448,3.832-.276,4.499-2.321.072-.221.114-.458.17-.683l1.239-4.971c1.74-6.978,3.48-13.956,5.219-20.933l7.248-29.069,7.325-29.379c1.817-7.288,3.634-14.577,5.452-21.865l1.414-5.669c.09-.362.196-.725.272-1.091.402-1.949-.549-3.663-2.471-4.261-4.315-1.343-8.844-2.205-13.227-3.298-9.114-2.272-18.228-4.545-27.342-6.817l-29.317-7.31-19.152-4.775c-2.117-.528-4.858-1.402-6.018,1.309-.509,1.191-.355,2.572.861,3.284,1.01.591,2.771.337,3.284-.861-.642,1.501-2.072.131-1.296.425.185.07.399.099.591.147l2.261.564,8.198,2.044,25.924,6.464c9.758,2.433,19.515,4.866,29.273,7.299,6.972,1.738,13.944,3.477,20.915,5.215l2.61.651c.276.069.903.361,1.19.297.137-.031-.841-1.748-.906-1.677-.06.066-.053.254-.084.338-.188.498-.267,1.071-.396,1.587l-4.053,16.254-6.663,26.724-7.376,29.585-6.296,25.253-3.322,13.324c-.033.133-.126.332-.117.469.053.843,1.317-1.22,1.7-.796-.122-.135-.702-.175-.869-.217l-5.931-1.479c-7.819-1.95-15.639-3.899-23.458-5.849-9.848-2.455-19.697-4.911-29.545-7.366-7.974-1.988-15.948-3.976-23.922-5.964l-6.338-1.58c-.23-.057-.882-.354-1.116-.278.193-.062.66,1.998.929,1.663.064-.079.058-.273.092-.369.488-1.387.728-2.919,1.083-4.345l2.081-8.346c2.071-8.306,4.142-16.611,6.213-24.917l7.367-29.549,6.729-26.988c1.398-5.605,2.795-11.211,4.193-16.816l.583-2.338c.747-2.998-3.88-4.276-4.629-1.276Z"/><path class="f" d="M163.351,235.633c-16.125-4.021-32.251-8.041-48.376-12.062-2.998-.747-4.276,3.88-1.276,4.629,16.125,4.021,32.251,8.041,48.376,12.062,2.998.747,4.276-3.88,1.276-4.629h0Z"/><path class="h" d="M167.582,216.628c-16.34-4.074-32.293-8.052-48.187-12.014l7.509-30.117c15.894,3.963,31.847,7.94,48.187,12.014l-7.509,30.117Z"/><path class="f" d="M168.22,214.314c-16.062-4.005-32.124-8.01-48.187-12.014l1.676,2.952c2.195-8.803,4.39-17.606,6.584-26.408l.925-3.708-2.952,1.676c16.062,4.005,32.124,8.01,48.187,12.014l-1.676-2.952c-2.195,8.803-4.39,17.606-6.584,26.408l-.925,3.708c-.747,2.998,3.88,4.276,4.629,1.276,2.195-8.803,4.39-17.606,6.584-26.408l.925-3.708c.308-1.235-.392-2.632-1.676-2.952-16.062-4.005-32.124-8.01-48.187-12.014-1.235-.308-2.632.392-2.952,1.676l-6.584,26.408-.925,3.708c-.308,1.235.392,2.632,1.676,2.952,16.062,4.005,32.124,8.01,48.187,12.014,2.998.747,4.276-3.88,1.276-4.629Z"/><path class="e" d="M170.331,245.643c-3.26-.815-6.271-1.076-8.551-.53-2.576.617-4.482,3.225-3.539,5.7.563,1.478,1.954,2.454,3.288,3.303,5.638,3.591,11.645,6.604,17.895,8.974-7.247-.977-14.494-1.951-21.742-2.925-1.531-.206-3.086-.411-4.613-.184s-3.051.951-3.895,2.245c-1.11,1.702-.835,4.426.332,6.09.708,1.008,1.688,1.661,2.774,2.175-1.051.153-1.756.257-1.756.257-2.403.355-4.243,2.63-4.145,5.109.098,2.46,1.366,4.262,3.526,5.444,1.434.784,3.301,1.351,5.102,1.773-.775.871-1.268,1.427-1.268,1.427-1.394,1.575-1.338,4.085-.276,5.901,2.599,4.447,10.344,5.525,15.923,6.325,4.073.584,7.938.156,11.208-.942,5.686-1.91,9.255-4.24,12.463-10.301,2.174-4.108,2.789-8.736,2.864-13.628.042-2.773-.496-6.972-1.83-10.523-.912-2.428-2.528-4.529-4.605-6.082-1.499-1.121-3.266-2.338-5.19-3.541-4.249-2.656-9.356-4.916-13.965-6.068Z"/><path class="f" d="M177.231,259.654c-4.884-2.079-9.605-4.527-14.096-7.359-1.109-.699-3.363-1.872-2.584-3.495.626-1.303,2.243-1.513,3.293-1.56,3.977-.178,8.023,1.159,11.659,2.639,4.323,1.76,8.348,4.216,12.112,6.96,3.731,2.72,5.101,6.854,5.684,11.296.561,4.276.236,8.92-1.043,13.041-1.09,3.51-3.235,7.087-6.2,9.313-2.995,2.248-7.062,3.666-10.765,3.999-4.587.413-9.614-.453-14.016-1.768-1.674-.5-3.478-1.186-4.753-2.348-.954-.87-2.175-2.825-1.086-4.172.814-1.007.985-2.41,0-3.394-.842-.842-2.575-1.013-3.394,0-3.596,4.448-1.089,10.07,3.41,12.663,3.999,2.304,8.799,2.95,13.296,3.575,5.701.792,11.154-.079,16.375-2.474,4.193-1.924,7.372-5.166,9.62-9.162,2.798-4.975,3.732-10.865,3.57-16.523-.155-5.41-1.404-11.391-5.129-15.505-1.91-2.109-4.483-3.696-6.862-5.223-2.326-1.492-4.75-2.817-7.274-3.943-4.544-2.027-9.561-3.807-14.603-3.787-2.716.011-5.46.68-7.255,2.866-2.091,2.546-2.035,5.942.083,8.451,1.973,2.337,5.243,3.859,7.867,5.326,3.134,1.752,6.365,3.323,9.668,4.729,1.192.507,2.572.356,3.284-.861.59-1.008.338-2.773-.861-3.284h0Z"/><path class="f" d="M177.594,260.442c-6.638-.892-13.274-1.794-19.913-2.676-2.864-.381-5.965-.546-8.483,1.145-2.492,1.674-3.448,4.473-2.992,7.38.703,4.485,4.721,6.661,8.751,7.72,3.095.813,6.233,1.48,9.357,2.174,3.141.697,6.284,1.382,9.43,2.058,3.012.647,4.299-3.979,1.276-4.629-5.328-1.144-10.657-2.294-15.963-3.541-2.223-.523-4.869-.944-6.754-2.315-1.211-.881-2.033-2.966-1.058-4.32,1.148-1.594,3.885-1.187,5.515-.992,6.529.779,13.041,1.749,19.558,2.625,1.283.172,2.576-.308,2.952-1.676.307-1.117-.383-2.779-1.676-2.952h0Z"/><path class="f" d="M149.886,268.434c-3.396.636-5.902,3.823-5.907,7.247-.005,3.478,2.121,6.441,5.194,7.937,4.572,2.226,10.023,2.716,14.984,3.636,2.121.393,4.241.799,6.366,1.17,1.275.223,2.586-.342,2.952-1.676.318-1.157-.392-2.728-1.676-2.952-4.336-.757-8.657-1.601-12.986-2.397-2.783-.512-6.418-.899-8.658-2.797-1.985-1.682-1.841-5.004,1.008-5.538,1.275-.239,1.999-1.777,1.676-2.952-.367-1.337-1.674-1.916-2.952-1.676h0Z"/><path class="e" d="M72.535,230.414c5.677-2.723,11.964-4.496,17.771-4.527,2.212-.012,4.544.177,6.38,1.411,1.836,1.233,2.433,3.094,1.941,4.8-.375,1.299-1.411,2.388-2.723,2.715s-2.963.879-4.23,1.35c-4.109,1.526-5.436,1.92-9.849,4.422l-.637,4.047c5.041.807,10.194,2.033,13.405,2.923,2.877.798,4.623,1.463,7.021,2.739,1.531.815,2.93,1.681,3.686,3.242.627,1.295.796,2.229.664,3.449-.163,1.503-1.021,2.534-2.387,3.181-1.437.681-3.037.829-4.588.477-1.284-.292-2.578-.607-3.882-.93,3.737,1.859,3.985,3.275,4.653,5.401.315,1.003.127,2.904-.48,3.588-1.152,1.297-3.296,2.25-5.397,1.713-1.558-.398-3.021-.751-4.493-1.072,1.023.732,1.729,1.237,1.729,1.237,3.113,2.226,2.313,7.394-.356,8.252-2.171.698-5.733.085-9.532-.209-.4,5.282-5.622,10.465-7.455,11.504-1.14.646-4.716,2.243-7.474,2.195-5.772-.1-10.565-4.078-13.763-8.873-1.993-2.988-2.096-8.114-.4-11.28,2.57-4.797,4.569-9.901,5.935-15.17,1.525-6.077,5.161-17.16,8.844-21.631l5.616-4.951Z"/><path class="f" d="M73.747,232.486c3.84-1.822,7.925-3.178,12.128-3.85,2.002-.32,4.079-.44,6.103-.308,1.407.092,3.424.419,4.187,1.791.424.763.238,1.84-.576,2.281-.808.438-1.973.557-2.853.85-.948.315-1.882.666-2.819,1.011-3.23,1.193-6.3,2.556-9.302,4.25-2.69,1.518-.274,5.666,2.423,4.145,2.774-1.565,5.382-2.742,8.334-3.832,1.711-.631,3.43-1.163,5.171-1.698,1.732-.532,3.206-1.683,3.983-3.343,1.835-3.92-.509-7.869-4.283-9.389-3.594-1.447-7.913-.985-11.644-.386-4.621.741-9.058,2.334-13.275,4.334-1.171.556-1.475,2.234-.861,3.284.701,1.198,2.108,1.419,3.284.861h0Z"/><path class="f" d="M65.222,233.668c-3.709,4.597-5.748,10.564-7.552,16.115-.894,2.751-1.588,5.548-2.388,8.325-1.052,3.653-2.404,7.212-4.077,10.627-.771,1.575-1.697,3.089-2.153,4.796-.404,1.512-.569,3.141-.479,4.704.205,3.563,1.611,6.313,3.839,9.031,4.196,5.117,10.725,8.693,17.44,6.965,2.83-.728,5.443-1.931,7.562-3.955,2.628-2.509,4.813-5.698,5.819-9.209.852-2.975-3.778-4.245-4.629-1.276-.73,2.548-2.306,4.794-4.154,6.666-.396.402-.81.783-1.239,1.151-.582.499.194-.12-.133.11-.125.088-.249.177-.379.257-.836.516-1.765.878-2.691,1.195-2.619.897-5.125.975-7.713-.108-2.472-1.034-4.538-2.876-6.249-4.899-1.675-1.982-2.685-4.018-2.697-6.65-.013-2.968,1.475-5.173,2.681-7.787,1.417-3.07,2.643-6.233,3.622-9.47.771-2.549,1.378-5.142,2.165-7.686.906-2.927,1.908-5.839,3.104-8.661.577-1.361,1.207-2.704,1.911-4.003.29-.536.593-1.065.917-1.581.303-.483.682-1.034.865-1.261.813-1.008.985-2.409,0-3.394-.841-.841-2.576-1.014-3.394,0h0Z"/><path class="f" d="M80.551,246.945c4.308.7,8.587,1.62,12.8,2.758,1.815.49,3.64,1.013,5.348,1.808,1.391.647,3.22,1.345,4.168,2.607.748.996,1.188,2.805.125,3.641-1.584,1.245-3.832.469-5.544.056-4.645-1.122-9.263-2.36-13.987-3.114-1.278-.204-2.582.329-2.952,1.676-.314,1.142.389,2.747,1.676,2.952,4.426.707,8.761,1.834,13.11,2.9,2.032.498,4.13,1.164,6.243.937,2.061-.221,4.147-1.05,5.474-2.697,2.629-3.264,1.282-8.272-1.808-10.72-2.842-2.251-6.517-3.549-9.971-4.51-4.405-1.225-8.893-2.19-13.405-2.923-1.278-.208-2.583.332-2.952,1.676-.315,1.145.389,2.743,1.676,2.952h0Z"/><path class="f" d="M95.858,262.929c.657.488,1.049,1.163,1.195,1.584.165.475.34.96.451,1.45-.078-.344.006.091.006.239,0,.227.005.461-.027.687.042-.285-.123.417-.121.407.053-.23-.146.035.033-.091-.295.208-.538.472-.949.659-.939.426-1.721.284-2.702.038-4.851-1.215-9.751-2.062-14.708-2.708-1.288-.168-2.4,1.223-2.4,2.4,0,1.436,1.109,2.232,2.4,2.4,2.941.383,5.872.854,8.776,1.46,2.939.613,6.147,1.981,9.156,1.281,1.478-.344,3.002-1.194,4.012-2.338,1-1.132,1.361-2.712,1.331-4.196-.06-3.012-1.667-5.666-4.03-7.418-1.042-.773-2.68-.172-3.284.861-.715,1.222-.183,2.509.861,3.284h0Z"/><path class="f" d="M89.91,272.65c-.531-.394.037.056.138.161.074.077.146.156.215.237-.208-.281-.238-.317-.088-.109.094.155.185.314.281.467.312.501-.095-.374.039.061.06.196.127.387.174.587.023.099.044.199.062.299.042.262.034.2-.024-.187-.096.137.013.856.005,1.05-.018.433.122-.579-.024.088-.031.14-.067.28-.109.418-.027.09-.057.18-.09.269-.092.238-.065.175.082-.187-.104.1-.182.348-.258.476-.287.484.079-.035.067-.061.012.029-.349.368-.355.364.327-.241.39-.29.19-.148-.068.046-.138.089-.21.128-.294.243.566-.139.051-.026-.174.038-.343.095-.518.13-.105.021-.21.04-.316.056.365-.046.411-.054.139-.024-.426.024-.848.053-1.275.052-1.054-.003-2.107-.092-3.156-.189-2.412-.222-4.819-.5-7.245-.474-1.255.013-2.458,1.094-2.4,2.4.058,1.289,1.055,2.414,2.4,2.4,2.195-.023,4.377.198,6.56.409,1.801.174,3.647.388,5.453.164,1.966-.244,3.558-.949,4.687-2.647.874-1.314,1.266-3.084,1.122-4.647-.216-2.352-1.277-4.253-3.174-5.661-1.012-.751-2.723-.199-3.284.861-.663,1.255-.219,2.482.861,3.284h0Z"/></g></g></svg>