<svg xmlns="http://www.w3.org/2000/svg" width="192.841" height="242.458" viewBox="0 0 192.841 242.458"><defs><style>.a{fill:currentColor;}</style></defs><path class="a" d="M46.386,196.652c-11.934-6.515-24.436-13.528-32.626-24.728C6.379,161.83,4.448,148.8,4.892,136.566a73.677,73.677,0,0,1,2.763-17.877c.924-3.18,2.269-6.417,4.805-8.664,1.967-1.742,5.123-3.04,7.755-2.39a5.9,5.9,0,0,1,4.365,6.46c-.185,2.774-1.4,5.53-2.13,8.2A77.2,77.2,0,0,0,19.3,140.48c-.189,7.451.914,15.034,4.622,21.6a31.355,31.355,0,0,0,15.406,13.8,25.869,25.869,0,0,0,5.042,1.407,2.469,2.469,0,0,0,2.953-1.676,2.42,2.42,0,0,0-1.677-2.952,25.111,25.111,0,0,1-16.65-11.467c-4.112-6.393-5.148-13.9-4.876-21.38.218-5.994,1.739-12.028,3.44-17.949.893-3.107,2.108-6.24,1.8-9.533a10.556,10.556,0,0,0-6.5-8.855c-3.377-1.388-6.973-.768-10.184.755a16.855,16.855,0,0,0-7.628,7.862c-2.961,5.864-4,12.942-4.622,19.412-1.247,12.915.039,27.239,6.51,38.731,7.1,12.611,19.852,20.953,32.15,27.866q2.428,1.365,4.876,2.694c2.713,1.481,5.138-2.662,2.423-4.144Z"/><path class="a" d="M148.748,93.015a33.692,33.692,0,0,0,12.689-7.006A43.692,43.692,0,0,0,171.17,74.7a35.751,35.751,0,0,0,3.873-14.356,54.9,54.9,0,0,0-.826-15.066,56.9,56.9,0,0,0-5.881-16.329l.327,1.211q.6-6.738,1.094-13.486.248-3.433.463-6.87c.137-2.189.316-4.437-.751-6.444-2.02-3.8-6.687-3.41-10.349-3.144a74.632,74.632,0,0,0-11.249,1.761,71.818,71.818,0,0,0-12.05,3.848h2.423C131.6,2.755,124.271,2.2,117.038,2.208c-7.194.012-14.819.324-21.349,3.617h2.422A75.193,75.193,0,0,0,76.124.329C72.561-.02,67.655-.748,65.114,2.4a8.411,8.411,0,0,0-1.489,5.958c.121,2.313.286,4.624.447,6.933.345,4.961.766,9.915,1.193,14.869l.328-1.211a56.416,56.416,0,0,0-6.83,29.67A39.152,39.152,0,0,0,61.994,73.2c2.076,4.427,5.527,8.169,9.053,11.5a34.692,34.692,0,0,0,14.134,8.316c2.965.889,4.232-3.742,1.276-4.629a28.892,28.892,0,0,1-11.544-6.641c-3.444-3.167-6.764-6.7-8.774-10.967-1.939-4.118-2.5-8.954-2.63-13.455A50.642,50.642,0,0,1,65.1,43.166a52.594,52.594,0,0,1,2.338-7.025c.424-1.021.893-2.026,1.387-3.016.568-1.139,1.259-2.114,1.2-3.421-.249-5.549-.938-11.1-1.306-16.65q-.139-2.113-.267-4.229c-.058-.979-.3-2.313.231-3.2a1.589,1.589,0,0,1,1.426-.7,25.377,25.377,0,0,1,3.84.034,68.46,68.46,0,0,1,13.492,2.3c2.192.578,4.364,1.24,6.491,2.024A9.849,9.849,0,0,0,96.9,10.3c1.108,0,2.228-.868,3.252-1.26,4.209-1.612,9.014-1.811,13.471-1.969a74.42,74.42,0,0,1,13.742.538,34.381,34.381,0,0,1,6.358,1.5c.812.288,1.577.7,2.385.983,1.319.469,2.493-.284,3.718-.741A76.774,76.774,0,0,1,153.067,5.8a57.382,57.382,0,0,1,6.478-.814c1.2-.078,2.4-.125,3.593-.09a2.864,2.864,0,0,1,1.919.433c.668.663.5,1.979.463,2.809-.065,1.455-.178,2.91-.274,4.363q-.278,4.172-.6,8.341t-.694,8.336a6.265,6.265,0,0,0,1.056,3.749c.563,1.118,1.095,2.255,1.568,3.415a50.669,50.669,0,0,1,3.074,28.292,24.777,24.777,0,0,1-5.8,12.108c-3.015,3.4-6.273,6.822-10.248,9.108a28.666,28.666,0,0,1-6.126,2.534c-2.952.885-1.694,5.519,1.276,4.629Z"/><path class="a" d="M119.718,69.473c-1.973.61-6.507.227-6.883-3.5.043-4.921,5.527-5.2,8.1-3.547C123.043,63.782,123.91,67.768,119.718,69.473Z"/><path class="a" d="M92.513,49.874c-.8,2.6-.3,8.573,4.6,9.069,6.484-.057,6.847-7.282,4.673-10.672C100.011,45.494,94.759,44.352,92.513,49.874Z"/><path class="a" d="M141.414,49.874c.8,2.6.3,8.574-4.6,9.069-6.484-.057-6.847-7.282-4.673-10.673C133.916,45.494,139.168,44.352,141.414,49.874Z"/><path class="a" d="M106.985,75.344a8.742,8.742,0,0,0,6.47,3.422,6.6,6.6,0,0,0,6.478-3.55h-4.145a6.536,6.536,0,0,0,6.34,3.546,8.672,8.672,0,0,0,6.413-3.479A2.414,2.414,0,0,0,127.68,72a2.459,2.459,0,0,0-3.283.861c.155-.2,0-.013-.088.062-.12.106-.228.224-.353.326.245-.2-.1.059-.2.118-.139.085-.282.16-.424.238-.347.189.273-.09-.095.051-.151.059-.305.108-.46.153s-.31.085-.467.118c-.093.02-.6.062-.181.036a6.609,6.609,0,0,1-.912,0c.449.034-.3-.074-.46-.145.229.1-.076-.064-.124-.1.188.151-.2-.166-.232-.2a3.366,3.366,0,0,1-.467-.718,2.416,2.416,0,0,0-4.145,0,3.35,3.35,0,0,1-.467.718c-.045.045-.334.292-.262.237.16-.12-.383.195-.094.069-.14.061-.294.078-.437.128-.418.149.194.009-.081.023-.334.016-.658.015-.992,0-.195-.01-.289-.056-.044,0-.152-.032-.305-.061-.456-.1q-.285-.072-.562-.167c-.042-.015-.449-.184-.259-.1.229.107-.3-.166-.341-.193-.133-.078-.264-.16-.39-.249.389.274-.573-.628-.274-.235a2.477,2.477,0,0,0-3.283-.861,2.414,2.414,0,0,0-.861,3.283Z"/><path class="a" d="M115.46,70.195V73.01a2.469,2.469,0,0,0,2.4,2.4,2.43,2.43,0,0,0,1.7-.7,2.494,2.494,0,0,0,.7-1.7V70.195a2.467,2.467,0,0,0-2.4-2.4,2.429,2.429,0,0,0-1.7.7,2.5,2.5,0,0,0-.7,1.7Z"/><path class="a" d="M154.135,18.363a21.9,21.9,0,0,0-2.033-2.942c-.337-.427-.687-.845-1.059-1.243-.311-.333-.707-.618-.99-.969l.617,1.059a1.636,1.636,0,0,1-.278,1.444c-.139.168-.15.19-.035.065L150,16.06a2.119,2.119,0,0,0,.363-.2c.128-.065.26-.121.389-.183.249-.121-.591.236-.235.1l.26-.1a21.029,21.029,0,0,1,2.42-.737c.442-.109.888-.206,1.335-.293q.358-.069.718-.129c.119-.02.239-.037.358-.056.333-.053-.117.015-.209.025a18.933,18.933,0,0,1,2.682-.149,2.42,2.42,0,0,0,2.4-2.4,2.448,2.448,0,0,0-2.4-2.4,20.731,20.731,0,0,0-4.107.352,25.474,25.474,0,0,0-3.615.861A8.854,8.854,0,0,0,147,12.356a3.094,3.094,0,0,0-.832,3.475,7.159,7.159,0,0,0,1.582,1.845q.375.41.724.842c.049.059.1.118.144.178.2.244-.027-.026-.093-.124.1.146.214.284.318.427a17.1,17.1,0,0,1,1.153,1.786,2.422,2.422,0,0,0,3.283.861,2.448,2.448,0,0,0,.861-3.283Z"/><path class="a" d="M76.952,14.337a17.009,17.009,0,0,1,2.611.14c.3.035-.644-.1-.138-.016l.287.044q.36.059.717.127.708.135,1.408.307a21.629,21.629,0,0,1,2.366.716c.088.033.175.069.262.1.4.151-.2-.047-.23-.1.035.068.355.162.436.2.111.056.216.129.329.18.215.1-.508-.47-.248-.185a1.7,1.7,0,0,1-.39-1.587l.617-1.059c-.283.352-.679.636-.99.969-.372.4-.721.816-1.058,1.243A21.723,21.723,0,0,0,80.9,18.363a2.4,2.4,0,0,0,4.145,2.422,16.241,16.241,0,0,1,.934-1.481q.151-.216.308-.427c.052-.072.36-.477.135-.183s.144-.176.192-.235q.166-.2.338-.4a15.02,15.02,0,0,1,1.22-1.252,2.887,2.887,0,0,0,.431-3.762,6.55,6.55,0,0,0-3.512-2.156,24.366,24.366,0,0,0-3.526-.91,21.255,21.255,0,0,0-4.61-.44,2.4,2.4,0,1,0,0,4.8Z"/><path class="a" d="M48,71.8c4.712-.842,9.418-1.686,14.194-2.072,4.168-.337,8.366-.391,12.546-.362,3.089.021,3.093-4.779,0-4.8-4.252-.029-8.525.024-12.765.38-5.127.432-10.19,1.321-15.251,2.225a2.421,2.421,0,0,0-1.676,2.953A2.454,2.454,0,0,0,48,71.8Z"/><path class="a" d="M59.767,88.813a57.781,57.781,0,0,1,17.421-10.84,2.465,2.465,0,0,0,1.676-2.952,2.42,2.42,0,0,0-2.952-1.677,64.185,64.185,0,0,0-19.54,12.075,2.422,2.422,0,0,0,0,3.394,2.448,2.448,0,0,0,3.4,0Z"/><path class="a" d="M186.756,67.175c-5.06-.9-10.124-1.794-15.251-2.225-4.24-.356-8.513-.409-12.765-.38-3.087.021-3.094,4.821,0,4.8,4.18-.029,8.378.025,12.547.362,4.775.386,9.482,1.23,14.193,2.072a2.47,2.47,0,0,0,2.953-1.676,2.421,2.421,0,0,0-1.677-2.953Z"/><path class="a" d="M177.109,85.419a61.487,61.487,0,0,0-19.54-12.075,2.421,2.421,0,0,0-2.952,1.677,2.451,2.451,0,0,0,1.676,2.952,49.812,49.812,0,0,1,9.1,4.654,58.158,58.158,0,0,1,8.32,6.186,2.453,2.453,0,0,0,3.394,0,2.424,2.424,0,0,0,0-3.394Z"/><path class="a" d="M104.5,5.6V13a2.8,2.8,0,0,0,5.6,0V5.6a2.8,2.8,0,0,0-5.6,0Z"/><path class="a" d="M114.164,5.226V15.685a2.8,2.8,0,1,0,5.6,0V5.226a2.8,2.8,0,1,0-5.6,0Z"/><path class="a" d="M123.832,5.6V13a2.8,2.8,0,1,0,5.6,0V5.6a2.8,2.8,0,1,0-5.6,0Z"/><path class="a" d="M159.143,169.171c-2.166,13.376-6.587,26.277-8.463,39.7-.25,1.791-.472,3.587-.646,5.387a22.168,22.168,0,0,0-.257,5.687c.45,2.636,2.362,4.872,3.531,7.215a6.8,6.8,0,0,1-.4,6.973c-1.34,2.024-3.555,2.538-5.811,2.915a48.454,48.454,0,0,1-8.38.571c-.607,0-1.215-.021-1.821-.056-.268-.015-.536-.033-.8-.057-.788-.072.452.125-.338-.046a12.748,12.748,0,0,1-3.662-1.526,8.814,8.814,0,0,1-4.243-6.152c-.793-3.343-.058-6.354.287-9.7.891-8.625.818-17.387,1.149-26.047.516-13.505,1.2-26.97,1.179-40.49,0-3.088-4.805-3.094-4.8,0,.019,12.546-.541,25.044-1.062,37.575-.392,9.438-.4,18.932-1.209,28.347-.276,3.222-1.11,6.3-.58,9.553.538,3.3,1.642,6.909,4.237,9.195a16.7,16.7,0,0,0,7.917,3.952,37.576,37.576,0,0,0,8.631.076,28.578,28.578,0,0,0,8.426-1.516,10.932,10.932,0,0,0,6.272-6.867,11.719,11.719,0,0,0-1-9.437c-.681-1.308-1.493-2.542-2.189-3.842a6.324,6.324,0,0,1-.585-1.345,1.988,1.988,0,0,1-.082-.347c.006.044.033.361.039.094.01-.508.056-1.018.091-1.526.975-14.078,5.435-27.4,8.155-41.161q.576-2.916,1.049-5.852A2.473,2.473,0,0,0,162.1,167.5a2.419,2.419,0,0,0-2.953,1.676Z"/><path class="a" d="M71.546,170.447c2.245,13.859,6.974,27.229,8.653,41.182q.35,2.907.551,5.831c.033.473.076.948.09,1.421,0,.032,0,.382.021.11.023-.3-.04.176-.062.248a6.4,6.4,0,0,1-.586,1.345c-1.464,2.736-3.4,5.314-3.761,8.487a12.031,12.031,0,0,0,2.966,9c1.954,2.206,4.706,3.134,7.526,3.6a55.974,55.974,0,0,0,9.33.745,17.659,17.659,0,0,0,8.123-1.676,13.105,13.105,0,0,0,6.636-6.512,20.407,20.407,0,0,0,1.366-11.242c-1.309-9.267-1.2-18.752-1.536-28.1-.427-11.8-1.125-23.575-1.2-35.384q-.018-2.982-.011-5.964c0-3.089-4.8-3.093-4.8,0-.019,12,.479,23.948.991,35.929.406,9.485.538,18.991,1.166,28.466.352,5.313,2.279,11.315-1.313,16.019a11.073,11.073,0,0,1-6.135,3.5c-.79.171.45-.026-.338.046-.267.024-.535.042-.8.057-.606.035-1.213.051-1.821.056-1.508.014-3.018-.04-4.523-.146-2.346-.166-5.044-.305-7.228-1.263a6.62,6.62,0,0,1-3.64-5.835c-.147-2.564,1.794-4.912,3-7.092a10.838,10.838,0,0,0,1.334-3.338,22.168,22.168,0,0,0-.256-5.687c-1.487-15.336-6.654-29.922-9.11-45.087a2.419,2.419,0,0,0-2.952-1.676,2.458,2.458,0,0,0-1.677,2.952Z"/><path class="a" d="M152.209,90.046c3.57,3.226,5.254,7.624,6.923,12.017,1.878,4.944,4.048,9.79,6.093,14.667,4.268,10.18,9.32,20,13.581,30.18,4.094,9.779,7.581,20.139,8.736,30.726,1.034,9.483.99,20.126-2.925,29.011-3.874,8.8-11.677,16.384-21.777,16.4-3.088,0-3.093,4.805,0,4.8,9.975-.015,18.446-6.115,23.586-14.365,5.525-8.866,6.739-19.718,6.348-29.962-.429-11.2-3.256-22.134-7.218-32.575-4.2-11.075-9.742-21.55-14.4-32.425-2.375-5.542-4.818-11.091-7-16.711-2.128-5.481-4.06-11.1-8.549-15.157-2.287-2.066-5.692,1.318-3.394,3.394Z"/><path class="a" d="M79,86.652c-4,3.612-6.03,8.517-7.9,13.447-1.914,5.053-4.113,10-6.2,14.988-4.485,10.711-9.84,21.029-14.243,31.775-4.264,10.408-7.594,21.324-8.575,32.572-.9,10.335-.28,21.479,4.36,30.928,4.785,9.746,14.1,17.468,25.318,17.485,3.088,0,3.093-4.8,0-4.8-8.931-.014-16.169-6-20.347-13.525-4.675-8.426-5.274-18.63-4.683-28.058.662-10.553,3.661-20.863,7.493-30.672,4.067-10.409,9.3-20.3,13.68-30.576,2.33-5.468,4.711-10.935,6.909-16.458,1.959-4.92,3.526-10.05,7.579-13.712,2.3-2.075-1.106-5.461-3.394-3.394Z"/><path class="a" d="M94.986,232.075a6.813,6.813,0,0,0-.565,1.639,9.626,9.626,0,0,0-.172,1.916,9.288,9.288,0,0,0,.659,3.319,2.69,2.69,0,0,0,1.1,1.434,2.4,2.4,0,0,0,3.284-.861,2.31,2.31,0,0,0,.242-1.849,7.507,7.507,0,0,1-.513-1.907l.086.638a7.278,7.278,0,0,1-.009-1.83l-.085.638a4.8,4.8,0,0,1,.3-1.167l-.242.573c.017-.04.034-.08.053-.12a1.8,1.8,0,0,0,.285-.892,1.827,1.827,0,0,0-.043-.958,2.452,2.452,0,0,0-1.1-1.434,2.423,2.423,0,0,0-1.849-.242,2.341,2.341,0,0,0-1.435,1.1Z"/><path class="a" d="M85.454,231.99a7.464,7.464,0,0,0-.409,3.219,20.159,20.159,0,0,0,.247,2.021,4.616,4.616,0,0,0,.558,1.874,2.553,2.553,0,0,0,1.434,1.1,2.454,2.454,0,0,0,1.85-.242,2.425,2.425,0,0,0,1.1-1.434A2.393,2.393,0,0,0,90,236.682a.491.491,0,0,1-.079-.139l.242.574a9.115,9.115,0,0,1-.306-1.625l.085.638a9.419,9.419,0,0,1-.054-2.413l-.085.638a4.562,4.562,0,0,1,.284-1.089,2.4,2.4,0,0,0-.242-1.849,2.4,2.4,0,0,0-3.283-.861l-.486.375a2.4,2.4,0,0,0-.617,1.059Z"/><path class="a" d="M136.985,234.5q.028.06.054.12l-.242-.573a4.844,4.844,0,0,1,.3,1.167l-.085-.638a7.278,7.278,0,0,1-.009,1.83l.086-.638a7.507,7.507,0,0,1-.513,1.907,2.4,2.4,0,0,0,.242,1.849,2.4,2.4,0,0,0,3.284.861l.486-.375a2.407,2.407,0,0,0,.617-1.059,9.311,9.311,0,0,0,.66-3.319,9.793,9.793,0,0,0-.167-1.879,6.774,6.774,0,0,0-.571-1.676,2.411,2.411,0,0,0-1.434-1.1,2.4,2.4,0,0,0-2.953,1.676l-.085.639a2.384,2.384,0,0,0,.327,1.211Z"/><path class="a" d="M146.034,233.266a4.55,4.55,0,0,1,.284,1.089l-.085-.638a9.374,9.374,0,0,1-.054,2.413l.086-.638a9.1,9.1,0,0,1-.307,1.625l.242-.574a.491.491,0,0,1-.079.139,2.4,2.4,0,0,0,2.711,3.525,2.666,2.666,0,0,0,1.434-1.1,4.616,4.616,0,0,0,.558-1.874,20.159,20.159,0,0,0,.247-2.021,7.464,7.464,0,0,0-.409-3.219,2.677,2.677,0,0,0-1.1-1.434,2.4,2.4,0,0,0-3.283.861,2.321,2.321,0,0,0-.242,1.849Z"/></svg>