<?xml version="1.0" encoding="UTF-8"?><svg id="b" xmlns="http://www.w3.org/2000/svg" width="224.79" height="241.824" viewBox="0 0 224.79 241.824"><defs><style>.e{fill:#211715;}</style></defs><g id="c"><g id="d"><path class="e" d="M201.435,215.616c-.334,5.398-5.471,16.15-14.937,13.623-12.015-4.663-7.611-18.351-1.185-23.127,5.261-3.91,15.828-2.342,16.122,9.504Z"/><path class="e" d="M23.366,215.616c.334,5.398,5.471,16.15,14.937,13.623,12.015-4.663,7.611-18.351,1.185-23.127-5.261-3.91-15.828-2.342-16.122,9.504Z"/><path class="e" d="M38.941,179.573c2.031-21.195,7.778-42.098,16.826-61.371,2.59-5.517,5.45-10.904,8.556-16.147,1.578-2.664-2.57-5.081-4.145-2.423-11.177,18.865-19.135,39.669-23.332,61.194-1.209,6.199-2.103,12.46-2.705,18.747-.124,1.292,1.192,2.4,2.4,2.4,1.401,0,2.276-1.104,2.4-2.4h0Z"/><path class="e" d="M53.011,230.693c3.373-.152,6.761-.528,10.058-1.27,1.829-.412,3.625-.972,5.43-1.476,1.209-.337,2.076-1.716,1.676-2.952s-1.657-2.038-2.952-1.676c-1.717.479-3.424,1.011-5.161,1.414-3.104.721-5.817,1.015-9.051,1.16-1.252.056-2.46,1.063-2.4,2.4.056,1.252,1.057,2.461,2.4,2.4h0Z"/><path class="e" d="M160.478,102.054c10.906,18.408,18.619,38.617,22.762,59.609,1.169,5.924,2.044,11.898,2.62,17.909.124,1.29,1.015,2.4,2.4,2.4,1.202,0,2.524-1.102,2.4-2.4-2.104-21.951-7.97-43.406-17.292-63.39-2.64-5.658-5.563-11.18-8.745-16.551-1.573-2.656-5.724-.244-4.145,2.423h0Z"/><path class="e" d="M156.303,227.947c1.805.504,3.601,1.064,5.43,1.476,3.297.742,6.685,1.118,10.058,1.27,1.256.057,2.456-1.144,2.4-2.4-.06-1.349-1.055-2.339-2.4-2.4-3.234-.146-5.943-.439-9.051-1.16-1.736-.403-3.444-.935-5.161-1.414-1.208-.337-2.665.416-2.952,1.676-.29,1.272.382,2.591,1.676,2.952h0Z"/><path class="e" d="M104.104,227.275h16.504c1.297,0,2.4-1.103,2.4-2.4s-1.098-2.4-2.4-2.4h-16.504c-1.297,0-2.4,1.103-2.4,2.4s1.098,2.4,2.4,2.4h0Z"/><path class="e" d="M114.693,79.773c-2.357.728-7.774.271-8.223-4.176.051-5.879,6.603-6.209,9.678-4.237,2.517,1.614,3.553,6.376-1.454,8.413Z"/><path class="e" d="M83.144,56.357c-.96,3.106-.357,10.243,5.503,10.835,7.746-.067,8.18-8.699,5.582-12.75-2.127-3.317-8.401-4.682-11.085,1.915Z"/><path class="e" d="M141.569,56.357c.96,3.106.357,10.243-5.502,10.835-7.746-.068-8.18-8.7-5.583-12.751,2.127-3.317,8.401-4.682,11.085,1.916Z"/><path class="e" d="M99.883,86.551c3.504,4.594,11.718,5.71,14.663-.153h-4.145c1.349,2.686,4.188,4.236,7.171,4.005,2.945-.228,5.473-1.58,7.258-3.925.786-1.032.162-2.685-.861-3.284-1.233-.721-2.496-.174-3.284.861-.63.828-2.171,1.456-3.113,1.548-.778.076-1.115.107-1.764-.19-.583-.267-.969-.854-1.263-1.438-.787-1.566-3.358-1.566-4.145,0-.769,1.531-1.783,1.761-3.191,1.632-.287-.026-.302-.035-.721-.14-.323-.081-.826-.241-1.037-.338-.502-.231-1.213-.725-1.424-1.001-.785-1.029-2.068-1.572-3.284-.861-1.013.593-1.652,2.247-.861,3.284h0Z"/><path class="e" d="M109.956,80.635v3.363c0,.615.268,1.262.703,1.697.217.234.475.399.772.496.286.15.594.219.925.207.621-.028,1.264-.232,1.697-.703s.703-1.047.703-1.697v-3.363c0-.615-.268-1.262-.703-1.697-.217-.234-.475-.399-.772-.496-.286-.15-.594-.219-.925-.207-.621.028-1.264.232-1.697.703s-.703,1.047-.703,1.697h0Z"/><path class="e" d="M163.276,102.919c7.562-4.016,12.903-11.204,15.716-19.184,3.322-9.423,2.798-19.824.559-29.425-1.303-5.588-3.224-11.017-5.698-16.193l-.861,3.284c8.987-5.135,11.536-16.556,7.821-25.813-4.087-10.186-14.354-17.216-25.455-15.262-5.491.967-10.659,4.37-12.986,9.539l3.284-.861c-8.046-4.031-16.76-6.326-25.714-7.099s-18.145-.242-26.861,1.936c-4.843,1.21-9.54,2.979-13.996,5.227l3.284.861C78.046.204,65.385-2.148,56.41,1.989c-9.695,4.468-15.546,15.615-13.858,26.097.908,5.638,4.301,10.586,9.285,13.384l-.861-3.284c-8.042,16.753-11.807,39.305-.057,55.31,2.843,3.873,6.396,7.161,10.654,9.423,2.727,1.448,5.155-2.694,2.423-4.145-6.624-3.518-11.331-9.805-13.695-16.853-2.875-8.571-2.378-17.87-.32-26.562,1.202-5.078,2.881-10.044,5.14-14.75.553-1.153.344-2.607-.861-3.284-7.232-4.06-8.801-13.191-5.733-20.456,3.228-7.646,11.3-13.471,19.776-11.873,4.36.822,8.088,3.228,9.922,7.356.549,1.234,2.233,1.391,3.284.861,7.332-3.699,15.42-5.839,23.593-6.524,8.441-.708,17.088-.283,25.323,1.762,4.432,1.101,8.727,2.653,12.811,4.698,1.064.533,2.724.381,3.284-.861,3.29-7.309,12.851-9.301,19.7-5.997,7.528,3.632,12.571,12.244,11.298,20.62-.666,4.383-3.082,8.136-6.946,10.344-1.193.681-1.416,2.121-.861,3.284,7.255,15.183,10.767,35.457.408,50.074-2.412,3.404-5.581,6.205-9.263,8.16-2.729,1.449-.307,5.594,2.423,4.145h0Z"/><path class="e" d="M126.258,166.917c-3.348,10.764-5.265,21.887-6.761,33.041-1.184,8.83-3.119,19.372,2.187,27.302,2.59,3.871,6.718,6.077,11.235,6.889,5.105.917,10.508.797,15.257-1.477,6.469-3.098,10.576-10.12,13.54-16.335,3.92-8.218,6.562-16.963,9.233-25.643.91-2.959-3.721-4.224-4.629-1.276-2.17,7.054-4.297,14.152-7.162,20.963-2.476,5.885-5.789,12.696-10.753,16.52-3.151,2.427-7.045,3.149-10.956,2.968-3.715-.171-7.818-.973-10.532-3.715-2.798-2.827-3.699-7.093-3.871-10.93-.192-4.272.366-8.536.92-12.763,1.514-11.566,3.45-23.109,6.92-34.267.919-2.956-3.713-4.221-4.629-1.276h0Z"/><path class="e" d="M93.827,168.193c3.099,9.966,4.985,20.25,6.425,30.574.615,4.406,1.287,8.845,1.429,13.297.126,3.942-.159,8.125-2.108,11.645-1.966,3.55-5.349,5.171-9.228,5.843-3.991.691-8.566.58-12.178-1.436-5.413-3.023-8.863-9.496-11.465-15.14-3.489-7.569-5.863-15.609-8.309-23.558-.906-2.944-5.541-1.688-4.629,1.276,2.385,7.75,4.767,15.509,8.009,22.954,2.902,6.665,6.675,13.771,12.866,17.934,3.861,2.596,8.727,3.367,13.297,3.047,4.632-.324,9.342-1.467,12.849-4.688,7.117-6.536,6.023-17.719,4.911-26.339-1.597-12.376-3.526-24.741-7.241-36.683-.914-2.94-5.55-1.685-4.629,1.276h0Z"/><path class="e" d="M215.683,206.192c-1.056,1.773-4.676,4.523-7.446,2.012-3.261-3.68.623-7.554,3.637-8.052,2.467-.408,5.778,1.97,3.809,6.039Z"/><path class="e" d="M187.474,177.233c-4.995,3.113-8.371,8.097-11.058,13.221-2.993,5.707-5.692,11.709-7.296,17.965-1.64,6.398-2.208,13.405.055,19.731,2.137,5.977,6.56,10.337,12.545,12.451,6.164,2.178,12.97,1.28,18.824-1.383,5.915-2.691,10.6-7.471,14.717-12.379,4-4.768,7.48-10.089,8.827-16.255,1.355-6.202.747-12.729-1.853-18.524-5.462-12.175-22.035-22.361-34.762-14.828-2.656,1.572-.244,5.723,2.423,4.145,9.498-5.622,21.596,1.92,26.703,10.267,2.756,4.504,3.765,9.78,3.278,15.01-.505,5.415-3.038,10.4-6.293,14.675-6.405,8.414-15.918,17.554-27.489,15.464-4.713-.851-9.05-3.459-11.333-7.762-2.644-4.982-2.708-10.971-1.673-16.394,1.234-6.469,3.837-12.553,6.779-18.41,2.428-4.833,5.317-9.914,10.028-12.85,2.616-1.63.209-5.785-2.423-4.145Z"/><path class="e" d="M199.165,187.708c-.122,1.98-2.006,5.923-5.478,4.996-4.406-1.71-2.791-6.73-.435-8.481,1.929-1.434,5.804-.859,5.912,3.485Z"/><path class="e" d="M209.242,195.421c-.632,2.053-3.618,5.726-7.038,3.868-4.205-2.921-1.228-7.796,1.699-9.041,2.396-1.019,6.33.571,5.339,5.173Z"/><path class="e" d="M9.118,206.192c1.056,1.773,4.676,4.523,7.446,2.012,3.261-3.68-.623-7.554-3.637-8.052-2.467-.408-5.778,1.97-3.809,6.039Z"/><path class="e" d="M34.904,181.378c4.174,2.601,6.898,6.907,9.157,11.161,2.641,4.972,4.995,10.167,6.561,15.583,1.597,5.524,2.436,11.493.886,17.126-1.343,4.881-4.546,8.792-9.349,10.596-5.158,1.937-10.944,1.389-15.884-.957-5.071-2.408-9.058-6.421-12.662-10.637-3.473-4.062-6.57-8.504-7.978-13.728-1.369-5.079-1.081-10.611.853-15.506,2.153-5.45,6.664-9.899,11.694-12.772,5.187-2.963,11.372-4.031,16.72-.866,2.664,1.577,5.082-2.571,2.423-4.145-11.585-6.858-25.969,1.027-32.726,11.138-3.4,5.088-4.932,11.377-4.542,17.463.414,6.455,2.939,12.415,6.763,17.585,3.731,5.044,8.099,9.93,13.313,13.474,5.605,3.81,12.553,5.675,19.289,4.623,5.679-.887,11.09-4.119,14.167-9.031,3.578-5.712,4.025-12.798,3.057-19.301-1.103-7.407-4.09-14.38-7.403-21.041-2.848-5.726-6.37-11.452-11.919-14.91-2.629-1.638-5.042,2.513-2.423,4.145Z"/><path class="e" d="M25.636,187.708c.122,1.98,2.006,5.923,5.478,4.996,4.406-1.71,2.791-6.73.435-8.481-1.929-1.434-5.804-.859-5.912,3.485Z"/><path class="e" d="M15.56,195.421c.632,2.053,3.618,5.726,7.038,3.868,4.205-2.921,1.228-7.796-1.699-9.041-2.396-1.019-6.33.571-5.339,5.173Z"/></g></g></svg>